<?xml version="1.0" standalone="no"?>
<!DOCTYPE svg PUBLIC "-//W3C//DTD SVG 20010904//EN"
 "http://www.w3.org/TR/2001/REC-SVG-20010904/DTD/svg10.dtd">
<svg version="1.0" xmlns="http://www.w3.org/2000/svg"
 width="1024.000000pt" height="1024.000000pt" viewBox="0 0 1024.000000 1024.000000"
 preserveAspectRatio="xMidYMid meet">

<g transform="translate(0.000000,1024.000000) scale(0.100000,-0.100000)"
fill="#000000" stroke="none">
<path d="M4900 9804 c-19 -2 -87 -9 -150 -15 -133 -12 -341 -49 -485 -85 -850
-214 -1595 -743 -2078 -1476 -389 -590 -579 -1223 -580 -1928 0 -487 83 -910
266 -1356 245 -596 690 -1151 1218 -1519 476 -331 809 -779 854 -1150 9 -68
27 -110 54 -125 27 -14 2215 -14 2242 0 27 15 45 56 53 120 32 260 187 544
441 808 121 127 225 215 385 327 69 48 168 121 220 163 130 104 417 393 524
527 360 452 591 951 705 1520 84 418 87 879 10 1309 -160 890 -678 1704 -1421
2233 -491 349 -1036 557 -1658 633 -88 11 -538 21 -600 14z m682 -233 c1085
-162 1998 -817 2488 -1782 329 -648 437 -1388 305 -2100 -159 -854 -653 -1613
-1377 -2117 -153 -106 -264 -199 -390 -328 -263 -267 -425 -533 -493 -809
l-22 -90 -973 0 -973 0 -23 85 c-108 406 -419 813 -864 1129 -347 246 -578
469 -805 775 -585 792 -785 1808 -545 2766 198 789 699 1498 1374 1945 462
306 954 482 1521 545 44 5 206 7 360 5 218 -2 310 -8 417 -24z"/>
<path d="M4240 8945 c-94 -21 -220 -87 -289 -150 l-59 -55 -78 0 c-309 -1
-601 -191 -739 -481 -33 -70 -75 -210 -75 -251 0 -10 -44 -62 -99 -116 -109
-107 -153 -176 -196 -307 -33 -99 -43 -240 -25 -351 l12 -77 -34 -25 c-63 -48
-194 -187 -236 -252 -173 -264 -222 -581 -136 -877 39 -136 121 -294 194 -378
17 -19 17 -23 -1 -95 -14 -52 -20 -110 -21 -190 -1 -242 81 -441 251 -610 140
-139 281 -206 521 -245 29 -5 45 -19 90 -77 104 -135 289 -257 476 -314 82
-26 102 -28 259 -28 157 0 177 2 259 27 274 85 483 263 602 513 66 138 88 240
88 409 0 143 -16 237 -60 340 -16 38 -15 39 23 119 l38 81 0 465 0 465 -24 45
c-13 25 -30 52 -38 62 -13 14 -11 21 12 56 53 80 55 101 55 548 0 268 -4 432
-11 466 -15 70 -51 140 -100 193 -21 23 -39 45 -39 48 0 3 18 31 39 62 79 112
119 267 108 413 -20 252 -209 483 -457 556 -79 24 -230 29 -310 11z m210 -205
c80 -15 154 -53 213 -109 192 -181 181 -477 -23 -646 -51 -43 -69 -69 -70
-105 0 -44 32 -80 100 -113 47 -23 73 -44 95 -75 l30 -44 3 -424 c2 -359 0
-428 -12 -452 -15 -29 -35 -40 -112 -61 -51 -14 -74 -39 -81 -89 -7 -56 33
-100 102 -113 36 -6 58 -17 78 -39 l27 -30 0 -415 c0 -459 1 -451 -65 -527
-44 -52 -45 -83 -4 -173 97 -215 93 -442 -13 -655 -59 -118 -196 -257 -315
-318 -249 -129 -541 -113 -770 42 -59 41 -159 144 -200 207 -47 72 -69 85
-162 93 -105 9 -155 23 -246 67 -146 71 -268 207 -322 359 -20 57 -28 100 -31
178 -9 219 59 381 222 527 41 37 77 78 81 92 8 35 -11 88 -40 107 -35 23 -97
20 -131 -6 -48 -35 -124 -110 -165 -161 l-38 -48 -27 43 c-38 60 -71 137 -96
226 -30 102 -31 311 -4 417 40 157 159 350 269 439 l39 31 21 -30 c40 -56 112
-128 171 -172 75 -56 113 -58 162 -9 55 55 41 117 -36 171 -142 98 -229 284
-217 465 11 175 94 317 244 417 58 40 69 61 77 155 14 180 131 371 286 470 69
44 170 84 234 93 44 7 48 6 42 -11 -16 -55 -26 -116 -26 -172 0 -57 3 -67 29
-93 38 -38 97 -40 136 -6 23 19 29 37 40 109 16 111 51 184 121 259 105 109
243 156 384 129z"/>
<path d="M4214 8096 c-57 -25 -65 -49 -58 -157 5 -77 3 -106 -11 -148 -25 -76
-81 -141 -156 -181 -57 -31 -72 -34 -144 -35 -61 0 -92 5 -132 23 -28 12 -68
22 -88 22 -85 0 -128 -109 -67 -169 55 -55 214 -96 332 -85 l66 6 18 -58 c23
-75 40 -108 84 -166 41 -55 78 -73 126 -64 74 14 101 106 51 172 -39 51 -75
135 -75 174 0 30 9 46 59 96 106 109 161 266 147 417 -10 106 -33 143 -101
161 -11 3 -34 -1 -51 -8z"/>
<path d="M4075 6516 c-28 -19 -67 -51 -87 -72 -44 -47 -104 -145 -113 -185 -6
-29 -7 -29 -41 -14 -68 28 -186 47 -253 40 -161 -17 -271 -78 -271 -150 0 -33
32 -83 61 -95 33 -14 61 -10 139 19 98 36 212 23 300 -35 31 -20 39 -35 58
-97 25 -87 84 -179 154 -242 122 -110 352 -170 418 -110 33 29 43 78 26 118
-18 44 -42 57 -122 67 -117 15 -215 83 -263 185 -20 40 -25 67 -25 135 -1 79
2 90 34 149 25 46 52 78 96 113 68 53 74 63 74 115 0 25 -8 43 -29 64 -42 41
-91 40 -156 -5z"/>
<path d="M4415 5197 c-22 -18 -29 -38 -41 -107 -17 -100 -45 -151 -113 -212
-57 -52 -128 -78 -210 -78 -79 0 -142 24 -214 81 -65 53 -96 60 -146 35 -32
-17 -51 -54 -51 -98 0 -25 11 -43 54 -84 133 -129 350 -176 529 -115 209 72
357 272 357 484 0 51 -4 62 -29 88 -38 37 -97 40 -136 6z"/>
<path d="M5775 8953 c-295 -39 -545 -320 -545 -614 0 -139 42 -279 115 -380
19 -27 35 -52 35 -55 0 -4 -18 -26 -39 -49 -49 -53 -85 -123 -100 -193 -7 -34
-11 -198 -11 -466 0 -447 2 -468 55 -548 23 -35 25 -42 12 -56 -8 -10 -25 -37
-38 -62 l-24 -45 -3 -434 c-3 -470 -1 -496 49 -594 l30 -60 -20 -56 c-46 -126
-55 -182 -55 -326 0 -169 22 -271 88 -409 119 -250 328 -428 602 -513 82 -25
102 -27 259 -27 157 0 177 2 259 28 187 57 372 179 476 313 50 65 59 72 100
78 308 45 545 210 675 470 61 124 87 239 87 385 -1 79 -7 138 -20 189 l-19 74
55 76 c331 458 235 1105 -216 1452 l-34 26 12 77 c19 117 8 254 -28 360 -43
125 -85 189 -194 298 -54 54 -98 106 -98 116 0 41 -42 181 -75 251 -138 290
-430 480 -739 481 l-78 0 -59 55 c-131 121 -331 182 -514 158z m165 -213 c83
-16 155 -54 221 -116 77 -75 116 -152 133 -269 11 -75 17 -92 40 -112 40 -34
99 -32 137 6 26 26 29 36 29 93 0 56 -10 117 -26 172 -6 17 -2 18 42 11 64 -9
165 -49 234 -93 155 -99 272 -290 286 -470 8 -94 19 -115 77 -155 150 -100
233 -242 244 -417 12 -181 -75 -367 -217 -465 -77 -54 -91 -116 -36 -171 44
-44 82 -45 146 -4 47 30 147 129 187 185 l21 30 39 -31 c110 -89 229 -282 269
-439 27 -106 26 -315 -4 -417 -25 -89 -58 -166 -96 -226 l-27 -43 -38 48 c-41
51 -117 126 -165 161 -34 26 -96 29 -131 6 -29 -19 -48 -72 -40 -107 4 -14 41
-56 82 -93 146 -131 212 -269 220 -459 6 -128 -10 -213 -58 -311 -98 -199
-287 -329 -516 -355 -54 -6 -108 -16 -120 -22 -13 -6 -41 -38 -63 -72 -41 -63
-143 -170 -196 -206 -180 -122 -414 -164 -617 -110 -134 35 -229 92 -337 201
-78 77 -104 111 -138 180 -106 213 -110 440 -13 655 41 90 40 121 -4 173 -66
76 -65 68 -65 527 l0 415 28 30 c19 22 41 33 77 39 69 13 109 57 102 113 -7
50 -30 75 -81 89 -77 21 -97 32 -112 61 -12 24 -14 93 -12 452 l3 424 30 44
c22 31 48 52 95 75 122 60 133 135 33 215 -207 163 -218 473 -23 651 104 95
228 132 360 107z"/>
<path d="M5970 8103 c-66 -21 -87 -57 -96 -167 -13 -149 42 -301 147 -410 43
-44 59 -68 59 -88 0 -44 -29 -119 -66 -169 -26 -36 -34 -57 -34 -89 0 -77 80
-125 146 -87 48 27 111 127 140 221 l18 58 66 -6 c118 -11 277 30 332 85 61
60 18 169 -67 169 -20 0 -60 -10 -88 -22 -40 -18 -71 -23 -132 -23 -72 1 -87
4 -144 35 -75 40 -131 105 -156 181 -14 42 -16 71 -11 148 7 109 -1 133 -60
157 -18 8 -35 14 -36 13 -2 0 -10 -3 -18 -6z"/>
<path d="M6009 6521 c-21 -21 -29 -39 -29 -64 0 -52 6 -62 74 -115 44 -35 71
-67 96 -113 32 -59 35 -71 34 -149 0 -77 -3 -91 -34 -148 -53 -99 -161 -172
-255 -172 -90 0 -149 -63 -125 -135 22 -67 73 -85 187 -66 193 34 361 182 416
368 19 68 25 76 67 102 86 55 193 66 290 30 90 -34 122 -35 157 -5 61 51 51
129 -20 170 -124 72 -317 81 -460 21 l-34 -14 -11 38 c-15 50 -80 147 -128
193 -101 95 -171 113 -225 59z"/>
<path d="M5689 5191 c-25 -26 -29 -37 -29 -88 0 -212 148 -412 357 -484 179
-61 396 -14 529 115 43 41 54 59 54 84 0 44 -19 81 -51 98 -50 25 -81 18 -146
-35 -73 -58 -135 -81 -217 -81 -81 0 -149 26 -208 79 -68 61 -97 115 -113 213
-11 68 -18 86 -40 105 -39 34 -98 32 -136 -6z"/>
<path d="M4009 1991 c-76 -76 14 -221 164 -266 76 -22 1818 -22 1894 0 62 19
124 62 164 118 26 36 30 48 26 87 -7 58 -41 90 -99 90 -35 0 -47 -6 -78 -39
-20 -21 -46 -44 -58 -50 -29 -16 -1775 -16 -1804 0 -12 6 -38 29 -58 50 -32
33 -43 39 -79 39 -34 0 -49 -6 -72 -29z"/>
<path d="M4044 1590 c-33 -13 -64 -59 -64 -95 0 -64 86 -156 178 -192 44 -17
103 -18 962 -18 859 0 918 1 962 18 92 36 178 128 178 192 0 41 -31 80 -74 95
-44 14 -70 3 -127 -54 l-47 -46 -893 0 -892 0 -44 45 c-57 60 -92 74 -139 55z"/>
<path d="M4031 1157 c-49 -29 -66 -100 -34 -147 32 -49 79 -92 128 -118 l50
-27 945 0 945 0 50 27 c49 26 96 69 128 118 44 64 -7 160 -84 160 -30 0 -74
-26 -93 -55 -37 -56 -12 -55 -945 -55 -565 0 -869 4 -888 10 -15 6 -44 29 -63
51 -40 46 -96 60 -139 36z"/>
<path d="M4441 726 c-28 -16 -50 -52 -51 -84 -1 -67 80 -159 166 -192 53 -19
75 -20 567 -20 552 1 549 1 627 55 44 31 88 92 97 135 12 64 -38 120 -108 120
-26 0 -42 -10 -79 -50 l-46 -50 -494 0 -494 0 -46 50 c-39 42 -52 50 -81 50
-19 -1 -45 -7 -58 -14z"/>
</g>
</svg>
